<svg width="68" height="68" viewBox="0 0 68 68" fill="none" xmlns="http://www.w3.org/2000/svg">
<path d="M34 64.4C50.7894 64.4 64.4 50.7894 64.4 34C64.4 17.2105 50.7894 3.59998 34 3.59998C17.2105 3.59998 3.59998 17.2105 3.59998 34C3.59998 50.7894 17.2105 64.4 34 64.4Z" stroke="#EAC392" stroke-width="6"/>
<path d="M34 59.6C48.1385 59.6 59.6 48.1385 59.6 34C59.6 19.8615 48.1385 8.40002 34 8.40002C19.8615 8.40002 8.40002 19.8615 8.40002 34C8.40002 48.1385 19.8615 59.6 34 59.6Z" fill="#D68A3D"/>
<path d="M33.9999 10L36.5599 19.6H31.4399L33.9999 10Z" fill="#EAC392"/>
<path d="M33.9999 58L36.5599 48.4H31.4399L33.9999 58Z" fill="#EAC392"/>
<path d="M58 33.9999L48.4 36.5599V31.4399L58 33.9999Z" fill="#EAC392"/>
<path d="M10 33.9999L19.6 36.5599V31.4399L10 33.9999Z" fill="#EAC392"/>
<path d="M34 50C42.8366 50 50 42.8366 50 34C50 25.1634 42.8366 18 34 18C25.1634 18 18 25.1634 18 34C18 42.8366 25.1634 50 34 50Z" fill="white"/>
<path d="M34 43.6C39.302 43.6 43.6 39.302 43.6 34C43.6 28.6981 39.302 24.4 34 24.4C28.6981 24.4 24.4 28.6981 24.4 34C24.4 39.302 28.6981 43.6 34 43.6Z" fill="#D68A3D"/>
<path d="M34 38.8C36.6509 38.8 38.8 36.6509 38.8 34C38.8 31.349 36.6509 29.2 34 29.2C31.349 29.2 29.2 31.349 29.2 34C29.2 36.6509 31.349 38.8 34 38.8Z" fill="#0B0F1B"/>
<path opacity="0.3" d="M42 34C42 38.4182 38.4182 42 34 42C29.5817 42 26 38.4182 26 34C26 29.5817 29.5817 26 34 26V34H42Z" fill="#4B4646"/>
<path d="M62.7999 34C62.7999 49.9059 49.9059 62.7999 34 62.7999C18.0942 62.7999 5.19995 49.9059 5.19995 34C5.19995 18.0942 18.0942 5.19995 34 5.19995C49.9059 5.19995 62.7999 18.0942 62.7999 34Z" stroke="#4B4646" stroke-opacity="0.1" stroke-width="4"/>
</svg>
